<svg width="95" height="95" viewBox="0 0 95 95" fill="none" xmlns="http://www.w3.org/2000/svg">
<g clip-path="url(#clip0_139_2719)">
<path d="M47.4095 0C21.3524 0 0 21.3524 0 47.4095C0 73.6476 21.3524 94.8191 47.4095 94.8191C73.4667 94.8191 94.8191 73.4667 94.8191 47.4095C95 21.3524 73.6476 0 47.4095 0Z" fill="#091031"/>
<path d="M49.1386 76C43.3825 76 37.9217 74.2521 33.3464 70.902C30.9849 69.1541 28.7711 66.9692 27.1476 64.493C27 64.3473 27 64.2017 27 64.056C27 63.9104 27 63.7647 27 63.619C27 63.4734 27.1476 63.3277 27.1476 63.1821C27.2952 63.0364 27.4428 63.0364 27.5904 62.8908L49.7289 53.1317C50.762 52.6947 51.7952 51.8207 52.3855 50.9468C52.9759 49.9272 53.4187 48.7619 53.4187 47.5966V24.8739C53.4187 24.7283 53.4187 24.5826 53.5663 24.437C53.5663 24.2913 53.7139 24.1457 53.8614 24.1457C54.009 24.1457 54.1566 24 54.3042 24C54.4518 24 54.5994 24 54.747 24C66.8494 26.4762 76 37.1092 76 49.7815C75.8524 64.2017 63.8976 76 49.1386 76Z" fill="white"/>
<path d="M22.4192 60C21.9737 60 21.6767 59.8546 21.2312 59.7092C20.9342 59.5638 20.6372 59.1277 20.4887 58.8369C18.5583 54.4752 17.6673 49.8227 18.1128 45.1702C18.4098 40.5177 20.0432 35.8652 22.7162 31.9397C25.3891 28.0142 28.953 24.6702 33.1109 22.4894C37.2688 20.1631 42.0207 19 46.9211 19C47.515 19 47.9605 19.1454 48.406 19.5816C48.8515 20.0177 49 20.4539 49 21.0355V47.3511C49 47.7872 48.8515 48.078 48.703 48.5142C48.5545 48.805 48.109 49.0957 47.812 49.2411L23.1617 59.8546C23.0132 60 22.7162 60 22.4192 60Z" fill="white"/>
</g>
<defs>
<clipPath id="clip0_139_2719">
<rect width="95" height="95" fill="white"/>
</clipPath>
</defs>
</svg>
