<svg width="94" height="94" viewBox="0 0 94 94" fill="none" xmlns="http://www.w3.org/2000/svg">
<path fill-rule="evenodd" clip-rule="evenodd" d="M47 0C21.034 0 0 21.034 0 47C0 72.966 21.034 94 47 94C72.966 94 94 72.966 94 47C94 21.034 72.966 0 47 0ZM63.2469 26.6914H58.4599C53.6728 26.6914 52.2222 29.5926 52.2222 32.6389V39.7469H62.8117L61.216 50.7716H52.3673V77.3179H40.4722V50.7716H30.7531V39.7469H40.4722V31.3333C40.4722 21.7593 46.1296 16.537 54.8333 16.537C59.0401 16.537 63.392 17.2623 63.392 17.2623V26.6914H63.2469Z" fill="#091031"/>
</svg>
