<svg width="99" height="99" viewBox="0 0 99 99" fill="none" xmlns="http://www.w3.org/2000/svg">
<path d="M49.4057 99C76.7486 99 98.8114 76.7486 98.8114 49.5943C98.8114 22.44 76.7486 0 49.4057 0C22.0629 0 0 22.2514 0 49.4057C0 76.56 22.2514 99 49.4057 99Z" fill="#091031"/>
<path d="M49.9681 20.9316C46.3852 20.9316 42.991 22.8174 41.1052 26.2116L19.9852 62.6059C17.1567 67.5088 19.0424 73.5431 23.7567 76.5602C25.4538 77.5031 27.151 77.8802 28.8481 77.8802C32.431 77.8802 35.8252 75.9945 37.711 72.6002L58.831 36.0174C61.6595 31.1145 56.9327 25.4374 54.9961 22.5002C53.4875 21.9345 51.6652 20.9316 49.9681 20.9316Z" fill="white"/>
<path d="M53.9699 26.5424C52.7933 25.8433 51.6108 25.4835 50.2527 25.4598C47.5364 25.4126 44.9663 26.7249 43.7366 29.0784L24.15 61.6471C22.0508 65.1729 23.3292 69.7753 26.8559 72.042C28.0325 72.741 29.215 73.1009 30.5731 73.1245C33.2894 73.1718 34.511 70.5888 35.9104 68.2382L55.5 35.5C56.5481 33.8219 57.9351 32.8879 57.4582 31.0136C56.9814 29.1393 55.6498 27.5894 53.9699 26.5424Z" fill="#091031"/>
<path d="M28.6162 57.5142C25.1149 57.5142 21.7978 59.349 19.955 62.6518C17.1908 67.4224 19.0336 73.294 23.6406 76.2298C25.2992 77.1472 26.9577 77.5142 28.6162 77.5142C32.1176 77.5142 35.4347 75.6793 37.2775 72.3765C40.0417 67.6059 38.5674 61.5509 33.5918 58.7986C32.1176 57.8811 30.2748 57.5142 28.6162 57.5142Z" fill="white"/>
<path d="M76.1805 76.7483C71.2776 79.5769 65.0548 78.0683 62.2262 72.9769L41.1062 36.2055C38.2776 31.3026 39.7862 25.0798 44.8776 22.2512C49.7805 19.4226 56.0033 20.9312 58.8319 26.0226L79.9519 62.6055C82.7805 67.5083 81.2719 73.5426 76.1805 76.7483Z" fill="white"/>
</svg>
