<svg width="42" height="42" viewBox="0 0 42 42" fill="none" xmlns="http://www.w3.org/2000/svg">
<path d="M21 3.9375C11.5918 3.9375 3.9375 11.5918 3.9375 21C3.9375 30.4082 11.5918 38.0625 21 38.0625C30.4082 38.0625 38.0625 30.4082 38.0625 21C38.0625 11.5918 30.4082 3.9375 21 3.9375ZM29.8799 15.2816L18.8549 28.4066C18.7339 28.5506 18.5835 28.667 18.4136 28.7478C18.2438 28.8286 18.0586 28.872 17.8705 28.875H17.8484C17.6644 28.8749 17.4825 28.8362 17.3145 28.7613C17.1464 28.6864 16.996 28.577 16.873 28.4402L12.148 23.1902C12.028 23.063 11.9347 22.913 11.8735 22.7491C11.8122 22.5853 11.7844 22.4108 11.7916 22.236C11.7988 22.0613 11.8408 21.8897 11.9152 21.7314C11.9897 21.5731 12.095 21.4313 12.225 21.3142C12.355 21.1972 12.5071 21.1074 12.6724 21.05C12.8376 20.9926 13.0127 20.9688 13.1872 20.9801C13.3618 20.9913 13.5324 21.0373 13.6889 21.1154C13.8454 21.1935 13.9847 21.3021 14.0987 21.4348L17.8139 25.5626L27.8701 13.5934C28.0957 13.3326 28.4148 13.1711 28.7586 13.1437C29.1023 13.1163 29.443 13.2252 29.707 13.447C29.971 13.6688 30.1372 13.9856 30.1695 14.3289C30.2019 14.6722 30.0978 15.0144 29.8799 15.2816Z" fill="#091031"/>
</svg>
