<svg width="94" height="94" viewBox="0 0 94 94" fill="none" xmlns="http://www.w3.org/2000/svg">
<g clip-path="url(#clip0_139_2716)">
<path d="M47 -0.25C20.9461 -0.25 -0.25 20.9461 -0.25 47C-0.25 73.0539 20.9461 94.25 47 94.25C73.0539 94.25 94.25 73.0539 94.25 47C94.25 20.9461 73.0539 -0.25 47 -0.25ZM69.4708 69.4708C68.7325 70.2087 67.7313 70.6232 66.6875 70.6232C65.6437 70.6232 64.6425 70.2087 63.9042 69.4708L53.3615 58.9306C48.9076 61.9955 43.4691 63.2852 38.1133 62.5467C32.7574 61.8083 27.8709 59.0949 24.4125 54.9391C20.9542 50.7834 19.1738 45.4852 19.4206 40.0843C19.6674 34.6834 21.9237 29.5697 25.7467 25.7467C29.5697 21.9237 34.6834 19.6674 40.0843 19.4206C45.4852 19.1738 50.7834 20.9542 54.9391 24.4125C59.0949 27.8709 61.8083 32.7574 62.5467 38.1133C63.2852 43.4691 61.9955 48.9076 58.9306 53.3615L69.4708 63.9042C70.2087 64.6425 70.6232 65.6437 70.6232 66.6875C70.6232 67.7313 70.2087 68.7325 69.4708 69.4708V69.4708Z" fill="#091031"/>
<path d="M41 57C49.8366 57 57 49.8366 57 41C57 32.1634 49.8366 25 41 25C32.1634 25 25 32.1634 25 41C25 49.8366 32.1634 57 41 57Z" fill="#091031"/>
</g>
<defs>
<clipPath id="clip0_139_2716">
<rect width="94" height="94" fill="white"/>
</clipPath>
</defs>
</svg>
