<svg width="50" height="30" viewBox="0 0 50 30" fill="none" xmlns="http://www.w3.org/2000/svg">
<path d="M6.24 27.92L5.72196 28.7754L5.72726 28.7785L6.24 27.92ZM1.76 22.92L0.861189 23.3584L0.865573 23.3672L1.76 22.92ZM1.76 7.08L0.86553 6.63276L0.861232 6.64157L1.76 7.08ZM6.24 2.08L5.72725 1.22144L5.72197 1.22464L6.24 2.08ZM19.4 2.08L18.882 2.93537L18.8873 2.93854L19.4 2.08ZM23.88 7.08L22.9812 7.51844L22.9856 7.52721L23.88 7.08ZM23.88 22.92L22.9855 22.4728L22.9812 22.4816L23.88 22.92ZM19.4 27.92L18.8873 27.0614L18.882 27.0646L19.4 27.92ZM15.6 19.24L14.6376 18.9685L14.6343 18.98L14.6313 18.9916L15.6 19.24ZM15.6 10.76L14.6313 11.0084L14.6352 11.0233L14.6394 11.0381L15.6 10.76ZM14.48 8.56L15.1444 7.81259L15.1444 7.81259L14.48 8.56ZM11.2 8.56L10.5356 7.81259V7.81259L11.2 8.56ZM10.04 10.76L9.07755 10.4885L9.07516 10.497L9.07293 10.5055L10.04 10.76ZM10.04 19.24L9.07134 19.4884L9.07431 19.5L9.07755 19.5115L10.04 19.24ZM12.84 28.64C10.5203 28.64 8.50125 28.1057 6.75274 27.0615L5.72726 28.7785C7.81876 30.0276 10.1997 30.64 12.84 30.64V28.64ZM6.75804 27.0646C5.04278 26.0258 3.67246 24.5089 2.65443 22.4728L0.865573 23.3672C2.03421 25.7045 3.65055 27.5208 5.72197 28.7754L6.75804 27.0646ZM2.65877 22.4816C1.67427 20.4634 1.16 17.9814 1.16 15H-0.84C-0.84 18.2053 -0.287605 21.0033 0.861232 23.3584L2.65877 22.4816ZM1.16 15C1.16 12.0186 1.67427 9.53664 2.65877 7.51842L0.861232 6.64157C-0.287605 8.99669 -0.84 11.7947 -0.84 15H1.16ZM2.65443 7.52721C3.67246 5.49114 5.04278 3.97417 6.75803 2.93536L5.72197 1.22464C3.65055 2.47916 2.03421 4.29552 0.865573 6.63279L2.65443 7.52721ZM6.75274 2.93854C8.50125 1.8943 10.5203 1.36 12.84 1.36V-0.640001C10.1997 -0.640001 7.81876 -0.0276318 5.72726 1.22145L6.75274 2.93854ZM12.84 1.36C15.1599 1.36 17.1631 1.89435 18.882 2.93536L19.918 1.22464C17.8502 -0.0276899 15.4801 -0.640001 12.84 -0.640001V1.36ZM18.8873 2.93854C20.6259 3.97688 21.9919 5.49031 22.9812 7.51842L24.7788 6.64157C23.6348 4.29635 22.0141 2.47645 19.9127 1.22146L18.8873 2.93854ZM22.9856 7.52721C23.9935 9.54314 24.52 12.0218 24.52 15H26.52C26.52 11.7915 25.9531 8.99019 24.7744 6.63279L22.9856 7.52721ZM24.52 15C24.52 17.9782 23.9935 20.4569 22.9856 22.4728L24.7744 23.3672C25.9531 21.0098 26.52 18.2085 26.52 15H24.52ZM22.9812 22.4816C21.9919 24.5097 20.6259 26.0231 18.8873 27.0615L19.9127 28.7785C22.0141 27.5235 23.6348 25.7036 24.7788 23.3584L22.9812 22.4816ZM18.882 27.0646C17.1631 28.1056 15.1599 28.64 12.84 28.64V30.64C15.4801 30.64 17.8502 30.0277 19.918 28.7754L18.882 27.0646ZM12.84 23.08C13.7106 23.08 14.4907 22.7684 15.1444 22.1874L13.8156 20.6926C13.5093 20.9649 13.1961 21.08 12.84 21.08V23.08ZM15.1444 22.1874C15.843 21.5664 16.2824 20.6049 16.5687 19.4884L14.6313 18.9916C14.3843 19.9551 14.077 20.4603 13.8156 20.6926L15.1444 22.1874ZM16.5625 19.5115C16.8916 18.3444 17.04 16.827 17.04 15H15.04C15.04 16.7464 14.8951 18.0555 14.6376 18.9685L16.5625 19.5115ZM17.04 15C17.04 13.1497 16.8922 11.6277 16.5606 10.4819L14.6394 11.0381C14.8944 11.919 15.04 13.2236 15.04 15H17.04ZM16.5687 10.5116C16.2824 9.39514 15.843 8.43364 15.1444 7.81259L13.8156 9.30741C14.077 9.5397 14.3843 10.0449 14.6313 11.0084L16.5687 10.5116ZM15.1444 7.81259C14.4907 7.23159 13.7106 6.92 12.84 6.92V8.92C13.1961 8.92 13.5093 9.03507 13.8156 9.30741L15.1444 7.81259ZM12.84 6.92C11.9694 6.92 11.1893 7.23159 10.5356 7.81259L11.8644 9.30741C12.1707 9.03507 12.4839 8.92 12.84 8.92V6.92ZM10.5356 7.81259C9.84556 8.42599 9.39119 9.37654 9.07755 10.4885L11.0025 11.0315C11.2755 10.0635 11.5944 9.54734 11.8644 9.30741L10.5356 7.81259ZM9.07293 10.5055C8.77415 11.6409 8.64 13.1535 8.64 15H10.64C10.64 13.2198 10.7725 11.9058 11.0071 11.0145L9.07293 10.5055ZM8.64 15C8.64 16.8229 8.77468 18.3314 9.07134 19.4884L11.0087 18.9916C10.772 18.0686 10.64 16.7504 10.64 15H8.64ZM9.07755 19.5115C9.39119 20.6235 9.84556 21.574 10.5356 22.1874L11.8644 20.6926C11.5944 20.4527 11.2755 19.9365 11.0025 18.9685L9.07755 19.5115ZM10.5356 22.1874C11.1893 22.7684 11.9694 23.08 12.84 23.08V21.08C12.4839 21.08 12.1707 20.9649 11.8644 20.6926L10.5356 22.1874ZM27.4247 29H26.4247V30H27.4247V29ZM27.4247 23.2L26.7457 22.4659L26.4247 22.7628V23.2H27.4247ZM37.5447 13.84L38.2237 14.5741L38.2302 14.5681L38.2366 14.562L37.5447 13.84ZM38.9447 12.24L38.1277 11.6633L38.1161 11.6798L38.1051 11.6967L38.9447 12.24ZM39.5847 11.04L40.5405 11.3341L40.5434 11.3244L40.5462 11.3147L39.5847 11.04ZM39.0647 8.4L38.4031 9.14984L38.4158 9.1611L38.429 9.17193L39.0647 8.4ZM34.6647 8.48L35.1608 9.34824L35.1723 9.34167L35.1837 9.33479L34.6647 8.48ZM32.9047 10.4L32.4575 11.2944L33.3519 11.7416L33.7991 10.8472L32.9047 10.4ZM25.7847 6.84L24.9003 6.37324L24.4232 7.27728L25.3375 7.73443L25.7847 6.84ZM30.3447 2.16L30.8542 3.02048L30.3447 2.16ZM43.7847 1.44L43.396 2.36136V2.36136L43.7847 1.44ZM47.7847 4.48L46.9788 5.07207V5.07207L47.7847 4.48ZM48.8647 11.84L47.898 11.5841L47.8944 11.5975L47.8913 11.611L48.8647 11.84ZM47.5047 14.72L48.3229 15.295L48.33 15.2847L47.5047 14.72ZM44.4247 18.04L43.7549 17.2974L43.7514 17.3006L44.4247 18.04ZM36.8247 24.96L35.9132 25.3713L36.4796 26.6266L37.4979 25.6994L36.8247 24.96ZM35.3447 21.68V20.68H33.7964L34.4332 22.0913L35.3447 21.68ZM49.8647 21.68H50.8647V20.68H49.8647V21.68ZM49.8647 29V30H50.8647V29H49.8647ZM28.4247 29V23.2H26.4247V29H28.4247ZM28.1037 23.9341L38.2237 14.5741L36.8657 13.1059L26.7457 22.4659L28.1037 23.9341ZM38.2366 14.562C38.9018 13.9245 39.4306 13.3297 39.7843 12.7833L38.1051 11.6967C37.8721 12.0569 37.4676 12.5288 36.8528 13.118L38.2366 14.562ZM39.7617 12.8167C40.1139 12.3177 40.3909 11.8202 40.5405 11.3341L38.6289 10.7459C38.5652 10.9531 38.4155 11.2556 38.1277 11.6633L39.7617 12.8167ZM40.5462 11.3147C40.6732 10.8704 40.7447 10.4302 40.7447 10H38.7447C38.7447 10.2098 38.7095 10.463 38.6232 10.7653L40.5462 11.3147ZM40.7447 10C40.7447 9.06782 40.427 8.22645 39.7004 7.62807L38.429 9.17193C38.609 9.32021 38.7447 9.54552 38.7447 10H40.7447ZM39.7263 7.65016C39.0178 7.02497 38.0569 6.8 37.0247 6.8V8.8C37.8059 8.8 38.2049 8.97503 38.4031 9.14984L39.7263 7.65016ZM37.0247 6.8C36.0045 6.8 35.0396 7.08251 34.1457 7.62521L35.1837 9.33479C35.7831 8.97082 36.3916 8.8 37.0247 8.8V6.8ZM34.1685 7.61176C33.232 8.14694 32.5152 8.94294 32.0103 9.95279L33.7991 10.8472C34.1475 10.1504 34.6041 9.66639 35.1608 9.34824L34.1685 7.61176ZM33.3519 9.50557L26.2319 5.94557L25.3375 7.73443L32.4575 11.2944L33.3519 9.50557ZM26.6691 7.30676C27.5889 5.5639 28.9724 4.13466 30.8542 3.02048L29.8352 1.29952C27.6636 2.58534 26.0071 4.2761 24.9003 6.37324L26.6691 7.30676ZM30.8542 3.02048C32.6891 1.93399 35.0214 1.36 37.9047 1.36V-0.640001C34.7613 -0.640001 32.0536 -0.0139923 29.8352 1.29952L30.8542 3.02048ZM37.9047 1.36C40.01 1.36 41.8339 1.70234 43.396 2.36136L44.1734 0.518636C42.3222 -0.262339 40.226 -0.640001 37.9047 -0.640001V1.36ZM43.396 2.36136C44.9606 3.02142 46.1401 3.93053 46.9788 5.07207L48.5906 3.88792C47.5093 2.41613 46.0222 1.29858 44.1734 0.518635L43.396 2.36136ZM46.9788 5.07207C47.7998 6.18955 48.2247 7.52348 48.2247 9.12H50.2247C50.2247 7.14318 49.6896 5.38378 48.5906 3.88792L46.9788 5.07207ZM48.2247 9.12C48.2247 9.93735 48.1166 10.7581 47.898 11.5841L49.8314 12.0959C50.0927 11.1086 50.2247 10.116 50.2247 9.12H48.2247ZM47.8913 11.611C47.7136 12.3661 47.324 13.2131 46.6794 14.1553L48.33 15.2847C49.072 14.2002 49.5891 13.1273 49.8381 12.069L47.8913 11.611ZM46.6865 14.1451C46.0523 15.0476 45.0848 16.0979 43.7549 17.2974L45.0945 18.7826C46.4846 17.5288 47.5704 16.3657 48.3229 15.2949L46.6865 14.1451ZM43.7514 17.3006L36.1514 24.2206L37.4979 25.6994L45.0979 18.7794L43.7514 17.3006ZM37.7362 24.5487L36.2562 21.2687L34.4332 22.0913L35.9132 25.3713L37.7362 24.5487ZM35.3447 22.68H49.8647V20.68H35.3447V22.68ZM48.8647 21.68V29H50.8647V21.68H48.8647ZM49.8647 28H27.4247V30H49.8647V28Z" fill="#FF6E51"/>
</svg>
