<svg width="50" height="30" viewBox="0 0 50 30" fill="none" xmlns="http://www.w3.org/2000/svg">
<path d="M6.24 27.92L5.72196 28.7754L5.72726 28.7785L6.24 27.92ZM1.76 22.92L0.861189 23.3584L0.865573 23.3672L1.76 22.92ZM1.76 7.08L0.86553 6.63276L0.861232 6.64157L1.76 7.08ZM6.24 2.08L5.72725 1.22144L5.72197 1.22464L6.24 2.08ZM19.4 2.08L18.882 2.93537L18.8873 2.93854L19.4 2.08ZM23.88 7.08L22.9812 7.51844L22.9856 7.52721L23.88 7.08ZM23.88 22.92L22.9855 22.4728L22.9812 22.4816L23.88 22.92ZM19.4 27.92L18.8873 27.0614L18.882 27.0646L19.4 27.92ZM15.6 19.24L14.6376 18.9685L14.6343 18.98L14.6313 18.9916L15.6 19.24ZM15.6 10.76L14.6313 11.0084L14.6352 11.0233L14.6394 11.0381L15.6 10.76ZM14.48 8.56L15.1444 7.81259L15.1444 7.81259L14.48 8.56ZM11.2 8.56L10.5356 7.81259V7.81259L11.2 8.56ZM10.04 10.76L9.07755 10.4885L9.07516 10.497L9.07293 10.5055L10.04 10.76ZM10.04 19.24L9.07134 19.4884L9.07431 19.5L9.07755 19.5115L10.04 19.24ZM12.84 28.64C10.5203 28.64 8.50125 28.1057 6.75274 27.0615L5.72726 28.7785C7.81876 30.0276 10.1997 30.64 12.84 30.64V28.64ZM6.75804 27.0646C5.04278 26.0258 3.67246 24.5089 2.65443 22.4728L0.865573 23.3672C2.03421 25.7045 3.65055 27.5208 5.72197 28.7754L6.75804 27.0646ZM2.65877 22.4816C1.67427 20.4634 1.16 17.9814 1.16 15H-0.84C-0.84 18.2053 -0.287605 21.0033 0.861232 23.3584L2.65877 22.4816ZM1.16 15C1.16 12.0186 1.67427 9.53664 2.65877 7.51842L0.861232 6.64157C-0.287605 8.99669 -0.84 11.7947 -0.84 15H1.16ZM2.65443 7.52721C3.67246 5.49114 5.04278 3.97417 6.75803 2.93536L5.72197 1.22464C3.65055 2.47916 2.03421 4.29552 0.865573 6.63279L2.65443 7.52721ZM6.75274 2.93854C8.50125 1.8943 10.5203 1.36 12.84 1.36V-0.640001C10.1997 -0.640001 7.81876 -0.0276318 5.72726 1.22145L6.75274 2.93854ZM12.84 1.36C15.1599 1.36 17.1631 1.89435 18.882 2.93536L19.918 1.22464C17.8502 -0.0276899 15.4801 -0.640001 12.84 -0.640001V1.36ZM18.8873 2.93854C20.6259 3.97688 21.9919 5.49031 22.9812 7.51842L24.7788 6.64157C23.6348 4.29635 22.0141 2.47645 19.9127 1.22146L18.8873 2.93854ZM22.9856 7.52721C23.9935 9.54314 24.52 12.0218 24.52 15H26.52C26.52 11.7915 25.9531 8.99019 24.7744 6.63279L22.9856 7.52721ZM24.52 15C24.52 17.9782 23.9935 20.4569 22.9856 22.4728L24.7744 23.3672C25.9531 21.0098 26.52 18.2085 26.52 15H24.52ZM22.9812 22.4816C21.9919 24.5097 20.6259 26.0231 18.8873 27.0615L19.9127 28.7785C22.0141 27.5235 23.6348 25.7036 24.7788 23.3584L22.9812 22.4816ZM18.882 27.0646C17.1631 28.1056 15.1599 28.64 12.84 28.64V30.64C15.4801 30.64 17.8502 30.0277 19.918 28.7754L18.882 27.0646ZM12.84 23.08C13.7106 23.08 14.4907 22.7684 15.1444 22.1874L13.8156 20.6926C13.5093 20.9649 13.1961 21.08 12.84 21.08V23.08ZM15.1444 22.1874C15.843 21.5664 16.2824 20.6049 16.5687 19.4884L14.6313 18.9916C14.3843 19.9551 14.077 20.4603 13.8156 20.6926L15.1444 22.1874ZM16.5625 19.5115C16.8916 18.3444 17.04 16.827 17.04 15H15.04C15.04 16.7464 14.8951 18.0555 14.6376 18.9685L16.5625 19.5115ZM17.04 15C17.04 13.1497 16.8922 11.6277 16.5606 10.4819L14.6394 11.0381C14.8944 11.919 15.04 13.2236 15.04 15H17.04ZM16.5687 10.5116C16.2824 9.39514 15.843 8.43364 15.1444 7.81259L13.8156 9.30741C14.077 9.5397 14.3843 10.0449 14.6313 11.0084L16.5687 10.5116ZM15.1444 7.81259C14.4907 7.23159 13.7106 6.92 12.84 6.92V8.92C13.1961 8.92 13.5093 9.03507 13.8156 9.30741L15.1444 7.81259ZM12.84 6.92C11.9694 6.92 11.1893 7.23159 10.5356 7.81259L11.8644 9.30741C12.1707 9.03507 12.4839 8.92 12.84 8.92V6.92ZM10.5356 7.81259C9.84556 8.42599 9.39119 9.37654 9.07755 10.4885L11.0025 11.0315C11.2755 10.0635 11.5944 9.54734 11.8644 9.30741L10.5356 7.81259ZM9.07293 10.5055C8.77415 11.6409 8.64 13.1535 8.64 15H10.64C10.64 13.2198 10.7725 11.9058 11.0071 11.0145L9.07293 10.5055ZM8.64 15C8.64 16.8229 8.77468 18.3314 9.07134 19.4884L11.0087 18.9916C10.772 18.0686 10.64 16.7504 10.64 15H8.64ZM9.07755 19.5115C9.39119 20.6235 9.84556 21.574 10.5356 22.1874L11.8644 20.6926C11.5944 20.4527 11.2755 19.9365 11.0025 18.9685L9.07755 19.5115ZM10.5356 22.1874C11.1893 22.7684 11.9694 23.08 12.84 23.08V21.08C12.4839 21.08 12.1707 20.9649 11.8644 20.6926L10.5356 22.1874ZM31.2647 29L31.0534 29.9774L31.2647 29ZM26.0647 27.12L25.1561 26.7023L24.7685 27.5454L25.5804 27.9949L26.0647 27.12ZM29.2647 20.16L29.765 19.2941L28.8146 18.745L28.3561 19.7423L29.2647 20.16ZM33.0247 21.72L32.7683 22.6866L32.7798 22.6896L32.7913 22.6924L33.0247 21.72ZM39.3847 21.68L39.846 22.5672L39.8524 22.5639L39.8588 22.5605L39.3847 21.68ZM39.6647 18.64L39.1 19.4653L39.1152 19.4757L39.1307 19.4855L39.6647 18.64ZM33.3847 18.12H32.3847V19.12H33.3847V18.12ZM33.3847 12.32L32.6718 11.6187L32.3847 11.9106V12.32H33.3847ZM40.6247 4.96L41.5911 4.7031L41.1409 3.00928L39.9118 4.25873L40.6247 4.96ZM41.4647 8.12V9.12H42.7652L42.4311 7.8631L41.4647 8.12ZM27.5047 8.12H26.5047V9.12H27.5047V8.12ZM27.5047 0.999998V-1.90735e-06H26.5047V0.999998H27.5047ZM48.3847 0.999998H49.3847V-1.90735e-06H48.3847V0.999998ZM48.3847 6.8L49.0976 7.50127L49.3847 7.20941V6.8H48.3847ZM41.1447 14.16L40.6519 15.0301L41.3195 15.4083L41.8576 14.8613L41.1447 14.16ZM36.6247 11.6V10.6H32.8299L36.1319 12.4701L36.6247 11.6ZM48.5447 24.64L47.694 24.1141L47.6872 24.1255L48.5447 24.64ZM44.3847 28.24L43.9425 27.343L43.9375 27.3456L44.3847 28.24ZM37.1047 28.64C35.2593 28.64 33.3835 28.435 31.476 28.0226L31.0534 29.9774C33.0926 30.4183 35.1101 30.64 37.1047 30.64V28.64ZM31.476 28.0226C29.5813 27.6129 27.9429 27.0167 26.549 26.2451L25.5804 27.9949C27.1731 28.8766 29.0014 29.5338 31.0534 29.9774L31.476 28.0226ZM26.9733 27.5377L30.1733 20.5777L28.3561 19.7423L25.1561 26.7023L26.9733 27.5377ZM28.7644 21.0259C30.0389 21.7623 31.3741 22.3167 32.7683 22.6866L33.2811 20.7534C32.062 20.43 30.8904 19.9444 29.765 19.2941L28.7644 21.0259ZM32.7913 22.6924C34.1886 23.0277 35.5209 23.2 36.7847 23.2V21.2C35.7018 21.2 34.5274 21.0523 33.2581 20.7476L32.7913 22.6924ZM36.7847 23.2C37.9488 23.2 38.9898 23.0125 39.846 22.5672L38.9233 20.7928C38.4463 21.0409 37.7539 21.2 36.7847 21.2V23.2ZM39.8588 22.5605C40.324 22.31 40.7261 21.972 41.0092 21.5255C41.2953 21.0744 41.4247 20.5677 41.4247 20.04H39.4247C39.4247 20.2323 39.3808 20.3589 39.3202 20.4545C39.2566 20.5547 39.1388 20.6767 38.9106 20.7995L39.8588 22.5605ZM41.4247 20.04C41.4247 19.0933 41.0036 18.3029 40.1987 17.7945L39.1307 19.4855C39.3391 19.6171 39.4247 19.76 39.4247 20.04H41.4247ZM40.2294 17.8147C39.4603 17.2885 38.345 17.12 37.1047 17.12V19.12C38.2643 19.12 38.8558 19.2982 39.1 19.4653L40.2294 17.8147ZM37.1047 17.12H33.3847V19.12H37.1047V17.12ZM34.3847 18.12V12.32H32.3847V18.12H34.3847ZM34.0976 13.0213L41.3376 5.66127L39.9118 4.25873L32.6718 11.6187L34.0976 13.0213ZM39.6582 5.2169L40.4982 8.3769L42.4311 7.8631L41.5911 4.7031L39.6582 5.2169ZM41.4647 7.12H27.5047V9.12H41.4647V7.12ZM28.5047 8.12V0.999998H26.5047V8.12H28.5047ZM27.5047 2H48.3847V-1.90735e-06H27.5047V2ZM47.3847 0.999998V6.8H49.3847V0.999998H47.3847ZM47.6718 6.09873L40.4318 13.4587L41.8576 14.8613L49.0976 7.50127L47.6718 6.09873ZM41.6375 13.2899L37.1175 10.7299L36.1319 12.4701L40.6519 15.0301L41.6375 13.2899ZM36.6247 12.6H39.1047V10.6H36.6247V12.6ZM39.1047 12.6C42.4922 12.6 44.9027 13.3587 46.4948 14.72L47.7946 13.2C45.7066 11.4146 42.7572 10.6 39.1047 10.6V12.6ZM46.4948 14.72C48.1065 16.0981 48.9047 17.8441 48.9047 20.04H50.9047C50.9047 17.2759 49.8629 14.9686 47.7946 13.2L46.4948 14.72ZM48.9047 20.04C48.9047 21.4398 48.511 22.7928 47.6941 24.1142L49.3953 25.1658C50.3917 23.5539 50.9047 21.8402 50.9047 20.04H48.9047ZM47.6872 24.1255C46.9269 25.3926 45.704 26.4747 43.9425 27.3431L44.8268 29.1369C46.852 28.1386 48.4025 26.8207 49.4022 25.1545L47.6872 24.1255ZM43.9375 27.3456C42.2564 28.1861 39.9985 28.64 37.1047 28.64V30.64C40.1842 30.64 42.7797 30.1605 44.8319 29.1344L43.9375 27.3456Z" fill="#FF6E51"/>
</svg>
