<svg width="56" height="30" viewBox="0 0 56 30" fill="none" xmlns="http://www.w3.org/2000/svg">
<path d="M6.24 27.92L5.72196 28.7754L5.72726 28.7785L6.24 27.92ZM1.76 22.92L0.861189 23.3584L0.865573 23.3672L1.76 22.92ZM1.76 7.08L0.86553 6.63276L0.861232 6.64157L1.76 7.08ZM6.24 2.08L5.72725 1.22144L5.72197 1.22464L6.24 2.08ZM19.4 2.08L18.882 2.93537L18.8873 2.93854L19.4 2.08ZM23.88 7.08L22.9812 7.51844L22.9856 7.52721L23.88 7.08ZM23.88 22.92L22.9855 22.4728L22.9812 22.4816L23.88 22.92ZM19.4 27.92L18.8873 27.0614L18.882 27.0646L19.4 27.92ZM15.6 19.24L14.6376 18.9685L14.6343 18.98L14.6313 18.9916L15.6 19.24ZM15.6 10.76L14.6313 11.0084L14.6352 11.0233L14.6394 11.0381L15.6 10.76ZM14.48 8.56L15.1444 7.81259L15.1444 7.81259L14.48 8.56ZM11.2 8.56L10.5356 7.81259V7.81259L11.2 8.56ZM10.04 10.76L9.07755 10.4885L9.07516 10.497L9.07293 10.5055L10.04 10.76ZM10.04 19.24L9.07134 19.4884L9.07431 19.5L9.07755 19.5115L10.04 19.24ZM12.84 28.64C10.5203 28.64 8.50125 28.1057 6.75274 27.0615L5.72726 28.7785C7.81876 30.0276 10.1997 30.64 12.84 30.64V28.64ZM6.75804 27.0646C5.04278 26.0258 3.67246 24.5089 2.65443 22.4728L0.865573 23.3672C2.03421 25.7045 3.65055 27.5208 5.72197 28.7754L6.75804 27.0646ZM2.65877 22.4816C1.67427 20.4634 1.16 17.9814 1.16 15H-0.84C-0.84 18.2053 -0.287605 21.0033 0.861232 23.3584L2.65877 22.4816ZM1.16 15C1.16 12.0186 1.67427 9.53664 2.65877 7.51842L0.861232 6.64157C-0.287605 8.99669 -0.84 11.7947 -0.84 15H1.16ZM2.65443 7.52721C3.67246 5.49114 5.04278 3.97417 6.75803 2.93536L5.72197 1.22464C3.65055 2.47916 2.03421 4.29552 0.865573 6.63279L2.65443 7.52721ZM6.75274 2.93854C8.50125 1.8943 10.5203 1.36 12.84 1.36V-0.640001C10.1997 -0.640001 7.81876 -0.0276318 5.72726 1.22145L6.75274 2.93854ZM12.84 1.36C15.1599 1.36 17.1631 1.89435 18.882 2.93536L19.918 1.22464C17.8502 -0.0276899 15.4801 -0.640001 12.84 -0.640001V1.36ZM18.8873 2.93854C20.6259 3.97688 21.9919 5.49031 22.9812 7.51842L24.7788 6.64157C23.6348 4.29635 22.0141 2.47645 19.9127 1.22146L18.8873 2.93854ZM22.9856 7.52721C23.9935 9.54314 24.52 12.0218 24.52 15H26.52C26.52 11.7915 25.9531 8.99019 24.7744 6.63279L22.9856 7.52721ZM24.52 15C24.52 17.9782 23.9935 20.4569 22.9856 22.4728L24.7744 23.3672C25.9531 21.0098 26.52 18.2085 26.52 15H24.52ZM22.9812 22.4816C21.9919 24.5097 20.6259 26.0231 18.8873 27.0615L19.9127 28.7785C22.0141 27.5235 23.6348 25.7036 24.7788 23.3584L22.9812 22.4816ZM18.882 27.0646C17.1631 28.1056 15.1599 28.64 12.84 28.64V30.64C15.4801 30.64 17.8502 30.0277 19.918 28.7754L18.882 27.0646ZM12.84 23.08C13.7106 23.08 14.4907 22.7684 15.1444 22.1874L13.8156 20.6926C13.5093 20.9649 13.1961 21.08 12.84 21.08V23.08ZM15.1444 22.1874C15.843 21.5664 16.2824 20.6049 16.5687 19.4884L14.6313 18.9916C14.3843 19.9551 14.077 20.4603 13.8156 20.6926L15.1444 22.1874ZM16.5625 19.5115C16.8916 18.3444 17.04 16.827 17.04 15H15.04C15.04 16.7464 14.8951 18.0555 14.6376 18.9685L16.5625 19.5115ZM17.04 15C17.04 13.1497 16.8922 11.6277 16.5606 10.4819L14.6394 11.0381C14.8944 11.919 15.04 13.2236 15.04 15H17.04ZM16.5687 10.5116C16.2824 9.39514 15.843 8.43364 15.1444 7.81259L13.8156 9.30741C14.077 9.5397 14.3843 10.0449 14.6313 11.0084L16.5687 10.5116ZM15.1444 7.81259C14.4907 7.23159 13.7106 6.92 12.84 6.92V8.92C13.1961 8.92 13.5093 9.03507 13.8156 9.30741L15.1444 7.81259ZM12.84 6.92C11.9694 6.92 11.1893 7.23159 10.5356 7.81259L11.8644 9.30741C12.1707 9.03507 12.4839 8.92 12.84 8.92V6.92ZM10.5356 7.81259C9.84556 8.42599 9.39119 9.37654 9.07755 10.4885L11.0025 11.0315C11.2755 10.0635 11.5944 9.54734 11.8644 9.30741L10.5356 7.81259ZM9.07293 10.5055C8.77415 11.6409 8.64 13.1535 8.64 15H10.64C10.64 13.2198 10.7725 11.9058 11.0071 11.0145L9.07293 10.5055ZM8.64 15C8.64 16.8229 8.77468 18.3314 9.07134 19.4884L11.0087 18.9916C10.772 18.0686 10.64 16.7504 10.64 15H8.64ZM9.07755 19.5115C9.39119 20.6235 9.84556 21.574 10.5356 22.1874L11.8644 20.6926C11.5944 20.4527 11.2755 19.9365 11.0025 18.9685L9.07755 19.5115ZM10.5356 22.1874C11.1893 22.7684 11.9694 23.08 12.84 23.08V21.08C12.4839 21.08 12.1707 20.9649 11.8644 20.6926L10.5356 22.1874ZM27.6153 24.2H26.6153V25.2H27.6153V24.2ZM27.6153 18.2L26.7925 17.6317L26.6153 17.8882V18.2H27.6153ZM39.4953 0.999998V-1.90735e-06H38.9707L38.6725 0.431684L39.4953 0.999998ZM49.1753 0.999998L50.008 1.5538L51.0414 -1.90735e-06H49.1753V0.999998ZM37.7353 18.2L37.448 19.1578L38.1576 19.3707L38.568 18.7538L37.7353 18.2ZM33.3353 16.88V15.88L33.048 17.8378L33.3353 16.88ZM55.0153 16.88H56.0153V15.88H55.0153V16.88ZM55.0153 24.2V25.2H56.0153V24.2H55.0153ZM42.1353 29H41.1353V30H42.1353V29ZM42.1353 24.2L41.136 24.1618L41.1353 24.1809V24.2H42.1353ZM42.4153 16.88L43.4146 16.9182L43.4153 16.8991V16.88H42.4153ZM42.4153 12.6V11.6H41.4153V12.6H42.4153ZM51.2953 12.6H52.2953V11.6H51.2953V12.6ZM51.2953 29V30H52.2953V29H51.2953ZM28.6153 24.2V18.2H26.6153V24.2H28.6153ZM28.4381 18.7683L40.3181 1.56831L38.6725 0.431684L26.7925 17.6317L28.4381 18.7683ZM39.4953 2H49.1753V-1.90735e-06H39.4953V2ZM48.3427 0.446192L36.9027 17.6462L38.568 18.7538L50.008 1.5538L48.3427 0.446192ZM38.0227 17.2422L33.6227 15.9222L33.048 17.8378L37.448 19.1578L38.0227 17.2422ZM33.3353 17.88H55.0153V15.88H33.3353V17.88ZM54.0153 16.88V24.2H56.0153V16.88H54.0153ZM55.0153 23.2H27.6153V25.2H55.0153V23.2ZM43.1353 29V24.2H41.1353V29H43.1353ZM43.1346 24.2382L43.4146 16.9182L41.416 16.8418L41.136 24.1618L43.1346 24.2382ZM43.4153 16.88V12.6H41.4153V16.88H43.4153ZM42.4153 13.6H51.2953V11.6H42.4153V13.6ZM50.2953 12.6V29H52.2953V12.6H50.2953ZM51.2953 28H42.1353V30H51.2953V28Z" fill="#FF6E51"/>
</svg>
