<svg width="97" height="38" viewBox="0 0 97 38" fill="none" xmlns="http://www.w3.org/2000/svg">
<path d="M4.20108 4.27401L4.20108 3.62401L4.20108 4.27401ZM61.569 4.27401V4.92401L61.6659 4.92401L61.7586 4.89575L61.569 4.27401ZM83.8159 18.2523L83.3898 18.7431L83.4515 18.7967L83.5245 18.8333L83.8159 18.2523ZM89.0505 20.5938L88.8017 21.1943L89.0505 20.5938ZM95.3815 28.2216L94.7425 28.1024L94.7013 28.3233L94.8053 28.5224L95.3815 28.2216ZM91.7468 33.6058C91.3895 33.6403 91.1278 33.9579 91.1622 34.3152C91.1967 34.6725 91.5143 34.9343 91.8716 34.8998L91.7468 33.6058ZM3.04411 33.5615C2.78678 33.0691 2.54414 32.249 2.33775 31.1381C2.13398 30.0412 1.97408 28.7101 1.85997 27.2287C1.63181 24.2665 1.58942 20.7394 1.73366 17.3531C1.87808 13.9622 2.2085 10.7404 2.71716 8.38062C2.97273 7.19496 3.26509 6.26701 3.58017 5.65062C3.73783 5.34218 3.88423 5.14586 4.00616 5.03378C4.12178 4.92748 4.18344 4.92401 4.20108 4.92401L4.20108 3.62401C3.7722 3.62401 3.41064 3.81539 3.12636 4.07672C2.84839 4.33225 2.61821 4.67631 2.42263 5.05893C2.03122 5.82465 1.71043 6.88152 1.44635 8.10669C0.915687 10.5686 0.58073 13.8724 0.434834 17.2978C0.288745 20.7276 0.331085 24.3072 0.56381 27.3285C0.680144 28.8389 0.84473 30.2188 1.05962 31.3755C1.27189 32.5181 1.5421 33.4941 1.89193 34.1636L3.04411 33.5615ZM4.20108 4.92401C14.9532 4.92397 42.9298 4.92401 61.569 4.92401V3.62401C42.9298 3.62401 14.9532 3.62397 4.20108 3.62401L4.20108 4.92401ZM61.7586 4.89575C63.0301 4.50801 66.6858 4.37277 70.2725 7.42957L71.1158 6.44015C67.1761 3.08255 63.0553 3.14125 61.3794 3.65227L61.7586 4.89575ZM70.2725 7.42957C74.0332 10.6346 80.5838 16.3069 83.3898 18.7431L84.2421 17.7615C81.4362 15.3254 74.8815 9.6495 71.1158 6.44015L70.2725 7.42957ZM83.5245 18.8333C84.2005 19.1724 86.1861 20.1107 88.8017 21.1943L89.2993 19.9933C86.7086 18.92 84.7517 17.9945 84.1073 17.6713L83.5245 18.8333ZM88.8017 21.1943C90.4779 21.8888 92.1639 22.5197 93.3546 23.5546C93.9332 24.0574 94.3731 24.6405 94.6247 25.3548C94.8764 26.0695 94.9554 26.9603 94.7425 28.1024L96.0204 28.3407C96.2673 27.0172 96.1915 25.8901 95.8508 24.9229C95.51 23.9554 94.9198 23.1925 94.2074 22.5734C92.8163 21.3643 90.8769 20.647 89.2993 19.9933L88.8017 21.1943ZM94.8053 28.5224C95.1255 29.1357 95.2229 29.8444 95.1835 30.5115C95.1439 31.1838 94.9687 31.7574 94.8048 32.0725L95.9581 32.6724C96.2186 32.1716 96.4325 31.4147 96.4813 30.5881C96.5303 29.7563 96.4155 28.7975 95.9576 27.9207L94.8053 28.5224ZM94.8048 32.0725C94.5148 32.63 93.4487 33.4417 91.7468 33.6058L91.8716 34.8998C93.8481 34.7092 95.3992 33.7469 95.9581 32.6724L94.8048 32.0725Z" fill="#FF6E51"/>
<path d="M26.1097 30.8572C26.1097 34.433 23.1605 37.3497 19.5002 37.3497C15.8399 37.3497 12.8907 34.433 12.8907 30.8572C12.8907 27.2815 15.8399 24.3648 19.5002 24.3648C23.1605 24.3648 26.1097 27.2815 26.1097 30.8572Z" stroke="#FF6E51" stroke-width="1.3"/>
<path d="M88.4637 30.8572C88.4637 34.433 85.5145 37.3497 81.8542 37.3497C78.1939 37.3497 75.2447 34.433 75.2447 30.8572C75.2447 27.2815 78.1939 24.3648 81.8542 24.3648C85.5145 24.3648 88.4637 27.2815 88.4637 30.8572Z" stroke="#FF6E51" stroke-width="1.3"/>
<path d="M65.5889 17.7449C64.0465 17.3497 63.6847 12.193 63.6966 9.66406H67.1957C69.0238 9.66406 70.8376 10.3463 71.516 10.6874C74.1344 13.0399 79.6925 18.0625 80.9778 19.3328C82.2632 20.6032 80.8469 20.5208 79.9781 20.3209C75.8244 19.6269 67.1314 18.1401 65.5889 17.7449Z" stroke="#FF6E51" stroke-width="1.3"/>
<path d="M10.8824 1.00221C10.4046 0.9185 9.58268 3.23208 9.19629 4.27848H32.3798L28.3403 1.00221C22.72 1.03709 11.3601 1.08592 10.8824 1.00221Z" stroke="#FF6E51" stroke-width="1.3"/>
<path d="M59.2171 19.4431C58.6237 20.2884 23.9052 19.0909 6.62012 18.3866V12.1527C6.62012 9.27878 9.61086 8.98294 11.1062 9.19426C25.8009 8.84206 55.9956 8.34899 59.2171 9.19426C63.244 10.2508 59.9589 18.3866 59.2171 19.4431Z" stroke="#FF6E51" stroke-width="1.3"/>
</svg>
