<svg width="17" height="16" viewBox="0 0 17 16" fill="none" xmlns="http://www.w3.org/2000/svg">
<path d="M6.36 0.479997L3.72 11.58L3.24 9C4.2 9 4.98 9.3 5.58 9.9C6.18 10.46 6.48 11.22 6.48 12.18C6.48 13.14 6.18 13.92 5.58 14.52C4.98 15.12 4.24 15.42 3.36 15.42C2.4 15.42 1.62 15.12 1.02 14.52C0.46 13.88 0.18 13.1 0.18 12.18C0.18 11.82 0.2 11.5 0.24 11.22C0.28 10.94 0.36 10.6 0.48 10.2C0.6 9.8 0.76 9.32 0.96 8.76L3.48 0.479997H6.36ZM16.56 0.479997L13.92 11.58L13.44 9C14.4 9 15.18 9.3 15.78 9.9C16.38 10.46 16.68 11.22 16.68 12.18C16.68 13.14 16.38 13.92 15.78 14.52C15.18 15.12 14.44 15.42 13.56 15.42C12.6 15.42 11.82 15.12 11.22 14.52C10.66 13.88 10.38 13.1 10.38 12.18C10.38 11.82 10.4 11.5 10.44 11.22C10.48 10.94 10.56 10.6 10.68 10.2C10.8 9.8 10.96 9.32 11.16 8.76L13.68 0.479997H16.56Z" fill="#FF6E51"/>
</svg>
